<mxfile host="65bd71144e">
    <diagram id="wGuZTnUREqj2o4ZN46lO" name="Página-1">
        <mxGraphModel dx="576" dy="446" grid="1" gridSize="10" guides="1" tooltips="1" connect="1" arrows="1" fold="1" page="1" pageScale="1" pageWidth="827" pageHeight="1169" math="0" shadow="0">
            <root>
                <mxCell id="0"/>
                <mxCell id="1" parent="0"/>
                <mxCell id="4" value="" style="ellipse;whiteSpace=wrap;html=1;" parent="1" vertex="1">
                    <mxGeometry x="294" y="10" width="120" height="80" as="geometry"/>
                </mxCell>
                <mxCell id="15" value="" style="edgeStyle=none;html=1;" parent="1" source="5" target="6" edge="1">
                    <mxGeometry relative="1" as="geometry"/>
                </mxCell>
                <mxCell id="5" value="inicio" style="text;html=1;strokeColor=none;fillColor=none;align=center;verticalAlign=middle;whiteSpace=wrap;rounded=0;" parent="1" vertex="1">
                    <mxGeometry x="325" y="34" width="60" height="30" as="geometry"/>
                </mxCell>
                <mxCell id="14" value="" style="edgeStyle=elbowEdgeStyle;html=1;elbow=vertical;startArrow=none;endArrow=none;" parent="1" source="6" target="7" edge="1">
                    <mxGeometry relative="1" as="geometry"/>
                </mxCell>
                <UserObject label="Mensaje saludo" treeRoot="1" id="6">
                    <mxCell style="whiteSpace=wrap;html=1;align=center;treeFolding=1;treeMoving=1;newEdgeStyle={&quot;edgeStyle&quot;:&quot;elbowEdgeStyle&quot;,&quot;startArrow&quot;:&quot;none&quot;,&quot;endArrow&quot;:&quot;none&quot;};" parent="1" vertex="1">
                        <mxGeometry x="295" y="160" width="120" height="60" as="geometry"/>
                    </mxCell>
                </UserObject>
                <mxCell id="13" value="" style="edgeStyle=elbowEdgeStyle;html=1;elbow=vertical;startArrow=none;endArrow=none;" parent="1" source="7" target="12" edge="1">
                    <mxGeometry relative="1" as="geometry"/>
                </mxCell>
                <UserObject label="Mostrar productos" treeRoot="1" id="7">
                    <mxCell style="whiteSpace=wrap;html=1;align=center;treeFolding=1;treeMoving=1;newEdgeStyle={&quot;edgeStyle&quot;:&quot;elbowEdgeStyle&quot;,&quot;startArrow&quot;:&quot;none&quot;,&quot;endArrow&quot;:&quot;none&quot;};" parent="1" vertex="1">
                        <mxGeometry x="295" y="250" width="120" height="60" as="geometry"/>
                    </mxCell>
                </UserObject>
                <mxCell id="22" value="" style="edgeStyle=none;html=1;" parent="1" source="10" edge="1">
                    <mxGeometry relative="1" as="geometry">
                        <mxPoint x="525" y="388" as="targetPoint"/>
                    </mxGeometry>
                </mxCell>
                <mxCell id="26" value="" style="edgeStyle=none;html=1;" parent="1" source="10" edge="1">
                    <mxGeometry relative="1" as="geometry">
                        <mxPoint x="170" y="388" as="targetPoint"/>
                    </mxGeometry>
                </mxCell>
                <mxCell id="10" value="" style="html=1;whiteSpace=wrap;aspect=fixed;shape=isoRectangle;" parent="1" vertex="1">
                    <mxGeometry x="280" y="343" width="150" height="90" as="geometry"/>
                </mxCell>
                <mxCell id="12" value="Preguntar si quiere comprar" style="text;html=1;strokeColor=none;fillColor=none;align=center;verticalAlign=middle;whiteSpace=wrap;rounded=0;" parent="1" vertex="1">
                    <mxGeometry x="327" y="373" width="60" height="30" as="geometry"/>
                </mxCell>
                <mxCell id="27" value="" style="whiteSpace=wrap;html=1;" parent="1" vertex="1">
                    <mxGeometry x="50" y="357" width="120" height="60" as="geometry"/>
                </mxCell>
                <mxCell id="29" value="Finalizar compra" style="text;html=1;strokeColor=none;fillColor=none;align=center;verticalAlign=middle;whiteSpace=wrap;rounded=0;" parent="1" vertex="1">
                    <mxGeometry x="80" y="372" width="60" height="30" as="geometry"/>
                </mxCell>
                <mxCell id="30" value="" style="whiteSpace=wrap;html=1;" parent="1" vertex="1">
                    <mxGeometry x="530" y="358" width="120" height="60" as="geometry"/>
                </mxCell>
                <mxCell id="34" value="" style="edgeStyle=none;html=1;" parent="1" source="32" target="33" edge="1">
                    <mxGeometry relative="1" as="geometry"/>
                </mxCell>
                <mxCell id="32" value="Mostrar lista de productos" style="text;html=1;strokeColor=none;fillColor=none;align=center;verticalAlign=middle;whiteSpace=wrap;rounded=0;" parent="1" vertex="1">
                    <mxGeometry x="565" y="372" width="60" height="30" as="geometry"/>
                </mxCell>
                <mxCell id="33" value="" style="whiteSpace=wrap;html=1;" parent="1" vertex="1">
                    <mxGeometry x="535" y="467" width="120" height="60" as="geometry"/>
                </mxCell>
                <mxCell id="39" value="" style="edgeStyle=none;html=1;" parent="1" source="35" target="38" edge="1">
                    <mxGeometry relative="1" as="geometry"/>
                </mxCell>
                <mxCell id="35" value="Mostrar menu" style="text;html=1;strokeColor=none;fillColor=none;align=center;verticalAlign=middle;whiteSpace=wrap;rounded=0;" parent="1" vertex="1">
                    <mxGeometry x="565" y="482" width="60" height="30" as="geometry"/>
                </mxCell>
                <mxCell id="38" value="" style="whiteSpace=wrap;html=1;" parent="1" vertex="1">
                    <mxGeometry x="535" y="577" width="120" height="60" as="geometry"/>
                </mxCell>
                <mxCell id="47" value="" style="edgeStyle=none;html=1;" parent="1" edge="1">
                    <mxGeometry relative="1" as="geometry">
                        <mxPoint x="595" y="622" as="sourcePoint"/>
                        <mxPoint x="595" y="684" as="targetPoint"/>
                    </mxGeometry>
                </mxCell>
                <mxCell id="41" value="" style="whiteSpace=wrap;html=1;" parent="1" vertex="1">
                    <mxGeometry x="535" y="669" width="120" height="60" as="geometry"/>
                </mxCell>
                <mxCell id="48" value="" style="edgeStyle=none;html=1;" parent="1" edge="1">
                    <mxGeometry relative="1" as="geometry">
                        <mxPoint x="595" y="714" as="sourcePoint"/>
                        <mxPoint x="595" y="774" as="targetPoint"/>
                    </mxGeometry>
                </mxCell>
                <mxCell id="43" value="" style="whiteSpace=wrap;html=1;" parent="1" vertex="1">
                    <mxGeometry x="535" y="759" width="120" height="60" as="geometry"/>
                </mxCell>
                <mxCell id="45" value="" style="whiteSpace=wrap;html=1;" parent="1" vertex="1">
                    <mxGeometry x="533" y="849" width="120" height="60" as="geometry"/>
                </mxCell>
                <mxCell id="50" value="" style="whiteSpace=wrap;html=1;" parent="1" vertex="1">
                    <mxGeometry x="533" y="939" width="120" height="60" as="geometry"/>
                </mxCell>
                <mxCell id="74" value="" style="edgeStyle=none;html=1;" parent="1" source="51" edge="1">
                    <mxGeometry relative="1" as="geometry">
                        <mxPoint x="593.3296703296703" y="1030" as="targetPoint"/>
                    </mxGeometry>
                </mxCell>
                <mxCell id="51" value="5-Finalizar compra:" style="text;html=1;strokeColor=none;fillColor=none;align=center;verticalAlign=middle;whiteSpace=wrap;rounded=0;" parent="1" vertex="1">
                    <mxGeometry x="564" y="954" width="60" height="30" as="geometry"/>
                </mxCell>
                <mxCell id="59" value="" style="edgeStyle=none;html=1;" parent="1" source="52" target="51" edge="1">
                    <mxGeometry relative="1" as="geometry"/>
                </mxCell>
                <mxCell id="52" value="4-Realizar compra:" style="text;html=1;strokeColor=none;fillColor=none;align=center;verticalAlign=middle;whiteSpace=wrap;rounded=0;" parent="1" vertex="1">
                    <mxGeometry x="563" y="864" width="60" height="30" as="geometry"/>
                </mxCell>
                <mxCell id="58" value="" style="edgeStyle=none;html=1;" parent="1" source="53" target="52" edge="1">
                    <mxGeometry relative="1" as="geometry"/>
                </mxCell>
                <mxCell id="53" value="3-Buscar producto por código:" style="text;html=1;strokeColor=none;fillColor=none;align=center;verticalAlign=middle;whiteSpace=wrap;rounded=0;" parent="1" vertex="1">
                    <mxGeometry x="563" y="774" width="60" height="30" as="geometry"/>
                </mxCell>
                <mxCell id="54" value="1-Mostrar productos en detalle:&amp;nbsp;" style="text;html=1;strokeColor=none;fillColor=none;align=center;verticalAlign=middle;whiteSpace=wrap;rounded=0;" parent="1" vertex="1">
                    <mxGeometry x="565" y="592" width="60" height="30" as="geometry"/>
                </mxCell>
                <mxCell id="55" value="2-Mostrar información breve del producto:&amp;nbsp;" style="text;html=1;strokeColor=none;fillColor=none;align=center;verticalAlign=middle;whiteSpace=wrap;rounded=0;" parent="1" vertex="1">
                    <mxGeometry x="565" y="684" width="60" height="30" as="geometry"/>
                </mxCell>
                <mxCell id="56" value="si" style="text;html=1;strokeColor=none;fillColor=none;align=center;verticalAlign=middle;whiteSpace=wrap;rounded=0;" parent="1" vertex="1">
                    <mxGeometry x="440" y="350" width="60" height="30" as="geometry"/>
                </mxCell>
                <mxCell id="57" value="no" style="text;html=1;strokeColor=none;fillColor=none;align=center;verticalAlign=middle;whiteSpace=wrap;rounded=0;" parent="1" vertex="1">
                    <mxGeometry x="220" y="340" width="60" height="30" as="geometry"/>
                </mxCell>
                <mxCell id="86" value="" style="edgeStyle=none;html=1;" parent="1" source="75" target="84" edge="1">
                    <mxGeometry relative="1" as="geometry"/>
                </mxCell>
                <mxCell id="75" value="" style="shape=parallelogram;perimeter=parallelogramPerimeter;whiteSpace=wrap;html=1;fixedSize=1;" parent="1" vertex="1">
                    <mxGeometry x="530" y="1030" width="120" height="60" as="geometry"/>
                </mxCell>
                <mxCell id="76" value="Ingrese una opcion" style="text;html=1;strokeColor=none;fillColor=none;align=center;verticalAlign=middle;whiteSpace=wrap;rounded=0;" parent="1" vertex="1">
                    <mxGeometry x="565" y="1045" width="60" height="30" as="geometry"/>
                </mxCell>
                <mxCell id="89" value="" style="edgeStyle=none;html=1;" parent="1" source="84" target="88" edge="1">
                    <mxGeometry relative="1" as="geometry"/>
                </mxCell>
                <mxCell id="84" value="" style="whiteSpace=wrap;html=1;" parent="1" vertex="1">
                    <mxGeometry x="530" y="1150" width="120" height="60" as="geometry"/>
                </mxCell>
                <mxCell id="87" value="mostrar opcion ingresada" style="text;html=1;strokeColor=none;fillColor=none;align=center;verticalAlign=middle;whiteSpace=wrap;rounded=0;" parent="1" vertex="1">
                    <mxGeometry x="563" y="1165" width="60" height="30" as="geometry"/>
                </mxCell>
                <mxCell id="92" value="" style="edgeStyle=none;html=1;" parent="1" source="88" edge="1">
                    <mxGeometry relative="1" as="geometry">
                        <mxPoint x="690" y="1300" as="targetPoint"/>
                    </mxGeometry>
                </mxCell>
                <mxCell id="88" value="" style="rhombus;whiteSpace=wrap;html=1;" parent="1" vertex="1">
                    <mxGeometry x="550" y="1260" width="80" height="80" as="geometry"/>
                </mxCell>
                <mxCell id="100" style="edgeStyle=none;html=1;entryX=0;entryY=0.75;entryDx=0;entryDy=0;" parent="1" source="90" target="30" edge="1">
                    <mxGeometry relative="1" as="geometry">
                        <mxPoint x="400" y="1300" as="targetPoint"/>
                        <Array as="points">
                            <mxPoint x="390" y="1300"/>
                            <mxPoint x="390" y="482"/>
                            <mxPoint x="480" y="480"/>
                            <mxPoint x="480" y="403"/>
                        </Array>
                    </mxGeometry>
                </mxCell>
                <mxCell id="90" value="opcion = correcta" style="text;html=1;strokeColor=none;fillColor=none;align=center;verticalAlign=middle;whiteSpace=wrap;rounded=0;" parent="1" vertex="1">
                    <mxGeometry x="560" y="1285" width="60" height="30" as="geometry"/>
                </mxCell>
                <mxCell id="96" value="si" style="text;html=1;strokeColor=none;fillColor=none;align=center;verticalAlign=middle;whiteSpace=wrap;rounded=0;" parent="1" vertex="1">
                    <mxGeometry x="780" y="1255" width="60" height="30" as="geometry"/>
                </mxCell>
                <mxCell id="99" value="no" style="text;html=1;strokeColor=none;fillColor=none;align=center;verticalAlign=middle;whiteSpace=wrap;rounded=0;" parent="1" vertex="1">
                    <mxGeometry x="475" y="1260" width="60" height="30" as="geometry"/>
                </mxCell>
                <mxCell id="104" value="" style="edgeStyle=none;html=1;" parent="1" source="101" target="103" edge="1">
                    <mxGeometry relative="1" as="geometry"/>
                </mxCell>
                <mxCell id="106" value="" style="edgeStyle=none;html=1;" parent="1" source="101" target="105" edge="1">
                    <mxGeometry relative="1" as="geometry"/>
                </mxCell>
                <mxCell id="101" value="" style="rhombus;whiteSpace=wrap;html=1;" parent="1" vertex="1">
                    <mxGeometry x="700" y="1260" width="80" height="80" as="geometry"/>
                </mxCell>
                <mxCell id="102" value="si opcion =1" style="text;html=1;strokeColor=none;fillColor=none;align=center;verticalAlign=middle;whiteSpace=wrap;rounded=0;" parent="1" vertex="1">
                    <mxGeometry x="710" y="1285" width="60" height="30" as="geometry"/>
                </mxCell>
                <mxCell id="118" value="" style="edgeStyle=none;html=1;" parent="1" source="103" edge="1">
                    <mxGeometry relative="1" as="geometry">
                        <mxPoint x="1040" y="1300" as="targetPoint"/>
                    </mxGeometry>
                </mxCell>
                <mxCell id="103" value="1-Mostrar productos en detalle:&amp;nbsp;" style="whiteSpace=wrap;html=1;" parent="1" vertex="1">
                    <mxGeometry x="840" y="1270" width="120" height="60" as="geometry"/>
                </mxCell>
                <mxCell id="116" value="" style="edgeStyle=none;html=1;" parent="1" source="105" target="114" edge="1">
                    <mxGeometry relative="1" as="geometry"/>
                </mxCell>
                <mxCell id="105" value="" style="rhombus;whiteSpace=wrap;html=1;" parent="1" vertex="1">
                    <mxGeometry x="700" y="1693" width="80" height="80" as="geometry"/>
                </mxCell>
                <mxCell id="109" value="" style="edgeStyle=none;html=1;" parent="1" source="107" target="108" edge="1">
                    <mxGeometry relative="1" as="geometry"/>
                </mxCell>
                <mxCell id="107" value="si opcion =2" style="text;html=1;strokeColor=none;fillColor=none;align=center;verticalAlign=middle;whiteSpace=wrap;rounded=0;" parent="1" vertex="1">
                    <mxGeometry x="710" y="1715" width="60" height="30" as="geometry"/>
                </mxCell>
                <mxCell id="137" value="" style="edgeStyle=none;html=1;" parent="1" source="108" target="130" edge="1">
                    <mxGeometry relative="1" as="geometry"/>
                </mxCell>
                <mxCell id="108" value="2-Mostrar información breve del producto:" style="whiteSpace=wrap;html=1;" parent="1" vertex="1">
                    <mxGeometry x="850" y="1701" width="120" height="60" as="geometry"/>
                </mxCell>
                <mxCell id="110" value="no" style="text;html=1;strokeColor=none;fillColor=none;align=center;verticalAlign=middle;whiteSpace=wrap;rounded=0;" parent="1" vertex="1">
                    <mxGeometry x="750" y="1623" width="60" height="30" as="geometry"/>
                </mxCell>
                <mxCell id="111" value="si" style="text;html=1;strokeColor=none;fillColor=none;align=center;verticalAlign=middle;whiteSpace=wrap;rounded=0;" parent="1" vertex="1">
                    <mxGeometry x="630" y="1255" width="60" height="30" as="geometry"/>
                </mxCell>
                <mxCell id="180" style="edgeStyle=none;html=1;" edge="1" parent="1" source="112">
                    <mxGeometry relative="1" as="geometry">
                        <mxPoint x="740" y="2978" as="targetPoint"/>
                    </mxGeometry>
                </mxCell>
                <mxCell id="112" value="" style="rhombus;whiteSpace=wrap;html=1;" parent="1" vertex="1">
                    <mxGeometry x="700" y="2140" width="80" height="80" as="geometry"/>
                </mxCell>
                <mxCell id="113" value="" style="edgeStyle=none;html=1;" parent="1" source="114" target="115" edge="1">
                    <mxGeometry relative="1" as="geometry"/>
                </mxCell>
                <mxCell id="114" value="si opcion =3" style="text;html=1;strokeColor=none;fillColor=none;align=center;verticalAlign=middle;whiteSpace=wrap;rounded=0;" parent="1" vertex="1">
                    <mxGeometry x="710" y="2162" width="60" height="30" as="geometry"/>
                </mxCell>
                <mxCell id="140" value="" style="edgeStyle=none;html=1;" parent="1" source="115" target="139" edge="1">
                    <mxGeometry relative="1" as="geometry"/>
                </mxCell>
                <mxCell id="115" value="3-Buscar producto por código:" style="whiteSpace=wrap;html=1;" parent="1" vertex="1">
                    <mxGeometry x="850" y="2145" width="120" height="60" as="geometry"/>
                </mxCell>
                <mxCell id="121" value="" style="edgeStyle=none;html=1;" parent="1" source="119" target="120" edge="1">
                    <mxGeometry relative="1" as="geometry"/>
                </mxCell>
                <mxCell id="119" value="volver al menu? =s&lt;br&gt;salir = x" style="shape=parallelogram;perimeter=parallelogramPerimeter;whiteSpace=wrap;html=1;fixedSize=1;" parent="1" vertex="1">
                    <mxGeometry x="1030" y="1270" width="140" height="60" as="geometry"/>
                </mxCell>
                <mxCell id="124" style="edgeStyle=none;html=1;entryX=1;entryY=0.75;entryDx=0;entryDy=0;" parent="1" source="120" target="30" edge="1">
                    <mxGeometry relative="1" as="geometry">
                        <mxPoint x="1281" y="1130" as="targetPoint"/>
                        <Array as="points">
                            <mxPoint x="1290" y="400"/>
                            <mxPoint x="950" y="403"/>
                        </Array>
                    </mxGeometry>
                </mxCell>
                <mxCell id="126" value="" style="edgeStyle=none;html=1;" parent="1" source="120" target="125" edge="1">
                    <mxGeometry relative="1" as="geometry"/>
                </mxCell>
                <mxCell id="120" value="" style="rhombus;whiteSpace=wrap;html=1;" parent="1" vertex="1">
                    <mxGeometry x="1241" y="1260" width="80" height="80" as="geometry"/>
                </mxCell>
                <mxCell id="123" value="opcion = s" style="text;html=1;strokeColor=none;fillColor=none;align=center;verticalAlign=middle;whiteSpace=wrap;rounded=0;" parent="1" vertex="1">
                    <mxGeometry x="1251" y="1285" width="60" height="30" as="geometry"/>
                </mxCell>
                <mxCell id="125" value="fin" style="ellipse;whiteSpace=wrap;html=1;" parent="1" vertex="1">
                    <mxGeometry x="1221" y="1362" width="120" height="80" as="geometry"/>
                </mxCell>
                <mxCell id="127" value="si" style="text;html=1;strokeColor=none;fillColor=none;align=center;verticalAlign=middle;whiteSpace=wrap;rounded=0;rotation=-90;" parent="1" vertex="1">
                    <mxGeometry x="1211" y="1195" width="60" height="30" as="geometry"/>
                </mxCell>
                <mxCell id="128" value="no" style="text;html=1;strokeColor=none;fillColor=none;align=center;verticalAlign=middle;whiteSpace=wrap;rounded=0;" parent="1" vertex="1">
                    <mxGeometry x="1300" y="1330" width="60" height="30" as="geometry"/>
                </mxCell>
                <mxCell id="129" value="" style="edgeStyle=none;html=1;" parent="1" source="130" target="132" edge="1">
                    <mxGeometry relative="1" as="geometry"/>
                </mxCell>
                <mxCell id="130" value="ingrese codigo del producto" style="shape=parallelogram;perimeter=parallelogramPerimeter;whiteSpace=wrap;html=1;fixedSize=1;" parent="1" vertex="1">
                    <mxGeometry x="1070" y="1700" width="140" height="60" as="geometry"/>
                </mxCell>
                <mxCell id="131" value="" style="edgeStyle=none;html=1;" parent="1" source="132" edge="1">
                    <mxGeometry relative="1" as="geometry">
                        <mxPoint x="1391" y="1833" as="targetPoint"/>
                    </mxGeometry>
                </mxCell>
                <mxCell id="132" value="" style="rhombus;whiteSpace=wrap;html=1;" parent="1" vertex="1">
                    <mxGeometry x="1351" y="1690" width="80" height="80" as="geometry"/>
                </mxCell>
                <mxCell id="190" value="" style="edgeStyle=none;html=1;" edge="1" parent="1" source="133" target="189">
                    <mxGeometry relative="1" as="geometry"/>
                </mxCell>
                <mxCell id="133" value="codigo=&lt;br&gt;existente" style="text;html=1;strokeColor=none;fillColor=none;align=center;verticalAlign=middle;whiteSpace=wrap;rounded=0;" parent="1" vertex="1">
                    <mxGeometry x="1361" y="1715" width="60" height="30" as="geometry"/>
                </mxCell>
                <mxCell id="135" value="si" style="text;html=1;strokeColor=none;fillColor=none;align=center;verticalAlign=middle;whiteSpace=wrap;rounded=0;rotation=0;" parent="1" vertex="1">
                    <mxGeometry x="1780" y="1600" width="60" height="30" as="geometry"/>
                </mxCell>
                <mxCell id="136" value="no" style="text;html=1;strokeColor=none;fillColor=none;align=center;verticalAlign=middle;whiteSpace=wrap;rounded=0;" parent="1" vertex="1">
                    <mxGeometry x="1341" y="1790" width="60" height="30" as="geometry"/>
                </mxCell>
                <mxCell id="142" value="" style="edgeStyle=none;html=1;" parent="1" source="139" target="141" edge="1">
                    <mxGeometry relative="1" as="geometry"/>
                </mxCell>
                <mxCell id="139" value="ingresar codigo" style="shape=parallelogram;perimeter=parallelogramPerimeter;whiteSpace=wrap;html=1;fixedSize=1;" parent="1" vertex="1">
                    <mxGeometry x="1060" y="2143" width="120" height="60" as="geometry"/>
                </mxCell>
                <mxCell id="144" value="" style="edgeStyle=none;html=1;" parent="1" source="141" target="143" edge="1">
                    <mxGeometry relative="1" as="geometry"/>
                </mxCell>
                <mxCell id="148" style="edgeStyle=none;html=1;entryX=0.5;entryY=1;entryDx=0;entryDy=0;" edge="1" parent="1" source="141" target="139">
                    <mxGeometry relative="1" as="geometry">
                        <Array as="points">
                            <mxPoint x="1321" y="2300"/>
                            <mxPoint x="1120" y="2300"/>
                        </Array>
                    </mxGeometry>
                </mxCell>
                <mxCell id="141" value="si codigo&lt;br&gt;= codigo ingresado" style="rhombus;whiteSpace=wrap;html=1;" parent="1" vertex="1">
                    <mxGeometry x="1271" y="2133" width="99" height="87" as="geometry"/>
                </mxCell>
                <mxCell id="146" value="" style="edgeStyle=none;html=1;" edge="1" parent="1" source="143" target="145">
                    <mxGeometry relative="1" as="geometry"/>
                </mxCell>
                <mxCell id="154" value="" style="edgeStyle=none;html=1;" edge="1" parent="1" source="143" target="153">
                    <mxGeometry relative="1" as="geometry"/>
                </mxCell>
                <mxCell id="143" value="codigo&lt;br&gt;=disponible" style="rhombus;whiteSpace=wrap;html=1;" parent="1" vertex="1">
                    <mxGeometry x="1440" y="2133" width="80" height="80" as="geometry"/>
                </mxCell>
                <mxCell id="172" value="" style="edgeStyle=none;html=1;" edge="1" parent="1" source="145" target="171">
                    <mxGeometry relative="1" as="geometry"/>
                </mxCell>
                <mxCell id="145" value="Mostrar producto" style="whiteSpace=wrap;html=1;" vertex="1" parent="1">
                    <mxGeometry x="1580" y="2143" width="120" height="60" as="geometry"/>
                </mxCell>
                <mxCell id="147" value="no" style="text;html=1;strokeColor=none;fillColor=none;align=center;verticalAlign=middle;whiteSpace=wrap;rounded=0;" vertex="1" parent="1">
                    <mxGeometry x="1191" y="2260" width="60" height="30" as="geometry"/>
                </mxCell>
                <mxCell id="149" value="si" style="text;html=1;strokeColor=none;fillColor=none;align=center;verticalAlign=middle;whiteSpace=wrap;rounded=0;" vertex="1" parent="1">
                    <mxGeometry x="1380" y="2133" width="60" height="30" as="geometry"/>
                </mxCell>
                <mxCell id="150" value="si" style="text;html=1;strokeColor=none;fillColor=none;align=center;verticalAlign=middle;whiteSpace=wrap;rounded=0;" vertex="1" parent="1">
                    <mxGeometry x="1520" y="2132" width="60" height="30" as="geometry"/>
                </mxCell>
                <mxCell id="156" value="" style="edgeStyle=none;html=1;" edge="1" parent="1" source="153" target="155">
                    <mxGeometry relative="1" as="geometry"/>
                </mxCell>
                <mxCell id="153" value="msj= codigo no disponible, volver al menu? = s , si no volver a ingresar codigo&amp;nbsp;" style="whiteSpace=wrap;html=1;" vertex="1" parent="1">
                    <mxGeometry x="1405" y="2290" width="150" height="73" as="geometry"/>
                </mxCell>
                <mxCell id="161" value="" style="edgeStyle=none;html=1;" edge="1" parent="1" source="155" target="160">
                    <mxGeometry relative="1" as="geometry"/>
                </mxCell>
                <mxCell id="155" value="inp s/n" style="shape=parallelogram;perimeter=parallelogramPerimeter;whiteSpace=wrap;html=1;fixedSize=1;" vertex="1" parent="1">
                    <mxGeometry x="1420" y="2410" width="120" height="60" as="geometry"/>
                </mxCell>
                <mxCell id="162" style="edgeStyle=none;html=1;entryX=0.25;entryY=1;entryDx=0;entryDy=0;" edge="1" parent="1" source="160" target="139">
                    <mxGeometry relative="1" as="geometry">
                        <Array as="points">
                            <mxPoint x="1090" y="2580"/>
                        </Array>
                    </mxGeometry>
                </mxCell>
                <mxCell id="165" style="edgeStyle=none;html=1;exitX=1;exitY=0.5;exitDx=0;exitDy=0;entryX=1;entryY=1;entryDx=0;entryDy=0;" edge="1" parent="1" source="160" target="30">
                    <mxGeometry relative="1" as="geometry">
                        <mxPoint x="1710" y="2580" as="targetPoint"/>
                        <Array as="points">
                            <mxPoint x="1750" y="2580"/>
                            <mxPoint x="2090" y="2580"/>
                            <mxPoint x="2090" y="1650"/>
                            <mxPoint x="2100" y="430"/>
                        </Array>
                    </mxGeometry>
                </mxCell>
                <mxCell id="160" value="if=s" style="rhombus;whiteSpace=wrap;html=1;" vertex="1" parent="1">
                    <mxGeometry x="1440" y="2540" width="80" height="80" as="geometry"/>
                </mxCell>
                <mxCell id="164" value="no" style="text;html=1;strokeColor=none;fillColor=none;align=center;verticalAlign=middle;whiteSpace=wrap;rounded=0;" vertex="1" parent="1">
                    <mxGeometry x="1290.5" y="2540" width="60" height="30" as="geometry"/>
                </mxCell>
                <mxCell id="166" value="si" style="text;html=1;strokeColor=none;fillColor=none;align=center;verticalAlign=middle;whiteSpace=wrap;rounded=0;" vertex="1" parent="1">
                    <mxGeometry x="1570" y="2540" width="60" height="30" as="geometry"/>
                </mxCell>
                <mxCell id="168" value="no" style="text;html=1;strokeColor=none;fillColor=none;align=center;verticalAlign=middle;whiteSpace=wrap;rounded=0;" vertex="1" parent="1">
                    <mxGeometry x="1405" y="2230" width="60" height="30" as="geometry"/>
                </mxCell>
                <mxCell id="176" style="edgeStyle=none;html=1;entryX=0.5;entryY=0;entryDx=0;entryDy=0;" edge="1" parent="1" source="169" target="139">
                    <mxGeometry relative="1" as="geometry">
                        <mxPoint x="1140" y="1940" as="targetPoint"/>
                        <Array as="points">
                            <mxPoint x="1120" y="1940"/>
                        </Array>
                    </mxGeometry>
                </mxCell>
                <mxCell id="177" style="edgeStyle=none;html=1;" edge="1" parent="1" source="169">
                    <mxGeometry relative="1" as="geometry">
                        <mxPoint x="2090" y="1940" as="targetPoint"/>
                    </mxGeometry>
                </mxCell>
                <mxCell id="169" value="opcion=s" style="rhombus;whiteSpace=wrap;html=1;" vertex="1" parent="1">
                    <mxGeometry x="1600" y="1900" width="80" height="80" as="geometry"/>
                </mxCell>
                <mxCell id="173" value="" style="edgeStyle=none;html=1;" edge="1" parent="1" source="171" target="169">
                    <mxGeometry relative="1" as="geometry"/>
                </mxCell>
                <mxCell id="171" value="Buscar otro producto&lt;br&gt;=s" style="shape=parallelogram;perimeter=parallelogramPerimeter;whiteSpace=wrap;html=1;fixedSize=1;" vertex="1" parent="1">
                    <mxGeometry x="1570" y="2010" width="140" height="70" as="geometry"/>
                </mxCell>
                <mxCell id="175" value="si" style="text;html=1;strokeColor=none;fillColor=none;align=center;verticalAlign=middle;whiteSpace=wrap;rounded=0;" vertex="1" parent="1">
                    <mxGeometry x="1530" y="1900" width="60" height="30" as="geometry"/>
                </mxCell>
                <mxCell id="178" value="no" style="text;html=1;strokeColor=none;fillColor=none;align=center;verticalAlign=middle;whiteSpace=wrap;rounded=0;" vertex="1" parent="1">
                    <mxGeometry x="1680" y="1900" width="60" height="30" as="geometry"/>
                </mxCell>
                <mxCell id="200" value="" style="edgeStyle=none;html=1;" edge="1" parent="1" source="181" target="199">
                    <mxGeometry relative="1" as="geometry"/>
                </mxCell>
                <mxCell id="268" style="edgeStyle=none;html=1;exitX=0;exitY=0.5;exitDx=0;exitDy=0;" edge="1" parent="1" source="181">
                    <mxGeometry relative="1" as="geometry">
                        <mxPoint x="730" y="4363" as="targetPoint"/>
                        <mxPoint x="600" y="3020" as="sourcePoint"/>
                        <Array as="points">
                            <mxPoint x="490" y="3020"/>
                            <mxPoint x="490" y="3110"/>
                            <mxPoint x="480" y="3860"/>
                            <mxPoint x="480" y="4363"/>
                        </Array>
                    </mxGeometry>
                </mxCell>
                <mxCell id="181" value="si opcion =4&amp;nbsp;" style="rhombus;whiteSpace=wrap;html=1;" vertex="1" parent="1">
                    <mxGeometry x="700" y="2980" width="80" height="80" as="geometry"/>
                </mxCell>
                <mxCell id="188" style="edgeStyle=none;html=1;entryX=0.393;entryY=1.017;entryDx=0;entryDy=0;entryPerimeter=0;" edge="1" parent="1" source="187" target="130">
                    <mxGeometry relative="1" as="geometry">
                        <mxPoint x="1137" y="1870" as="targetPoint"/>
                        <Array as="points">
                            <mxPoint x="1125" y="1870"/>
                        </Array>
                    </mxGeometry>
                </mxCell>
                <mxCell id="187" value="Ese codigode producto no existe o no se encuentra disp" style="shape=parallelogram;perimeter=parallelogramPerimeter;whiteSpace=wrap;html=1;fixedSize=1;" vertex="1" parent="1">
                    <mxGeometry x="1331" y="1840" width="120" height="60" as="geometry"/>
                </mxCell>
                <mxCell id="192" value="" style="edgeStyle=none;html=1;" edge="1" parent="1" source="189" target="191">
                    <mxGeometry relative="1" as="geometry"/>
                </mxCell>
                <mxCell id="189" value="Mostrar info breve" style="whiteSpace=wrap;html=1;" vertex="1" parent="1">
                    <mxGeometry x="1471" y="1700" width="120" height="60" as="geometry"/>
                </mxCell>
                <mxCell id="194" value="" style="edgeStyle=none;html=1;" edge="1" parent="1" source="191" target="193">
                    <mxGeometry relative="1" as="geometry"/>
                </mxCell>
                <mxCell id="191" value="ingresar nuevo codigo : s/n" style="shape=parallelogram;perimeter=parallelogramPerimeter;whiteSpace=wrap;html=1;fixedSize=1;" vertex="1" parent="1">
                    <mxGeometry x="1650" y="1700" width="120" height="60" as="geometry"/>
                </mxCell>
                <mxCell id="195" style="edgeStyle=none;html=1;entryX=0.5;entryY=0;entryDx=0;entryDy=0;" edge="1" parent="1" source="193" target="130">
                    <mxGeometry relative="1" as="geometry">
                        <Array as="points">
                            <mxPoint x="1860" y="1540"/>
                            <mxPoint x="1140" y="1540"/>
                        </Array>
                    </mxGeometry>
                </mxCell>
                <mxCell id="196" style="edgeStyle=none;html=1;" edge="1" parent="1" source="193">
                    <mxGeometry relative="1" as="geometry">
                        <mxPoint x="2090" y="1730" as="targetPoint"/>
                    </mxGeometry>
                </mxCell>
                <mxCell id="193" value="op=s" style="rhombus;whiteSpace=wrap;html=1;" vertex="1" parent="1">
                    <mxGeometry x="1820" y="1690" width="80" height="80" as="geometry"/>
                </mxCell>
                <mxCell id="197" value="no" style="text;html=1;strokeColor=none;fillColor=none;align=center;verticalAlign=middle;whiteSpace=wrap;rounded=0;rotation=0;" vertex="1" parent="1">
                    <mxGeometry x="1970" y="1690" width="60" height="30" as="geometry"/>
                </mxCell>
                <mxCell id="202" value="" style="edgeStyle=none;html=1;" edge="1" parent="1" source="199" target="201">
                    <mxGeometry relative="1" as="geometry"/>
                </mxCell>
                <mxCell id="199" value="Ingrese el codigo y la cantidad que va a comprar" style="rounded=0;whiteSpace=wrap;html=1;" vertex="1" parent="1">
                    <mxGeometry x="860" y="2990" width="120" height="60" as="geometry"/>
                </mxCell>
                <mxCell id="205" value="" style="edgeStyle=none;html=1;" edge="1" parent="1" source="201" target="203">
                    <mxGeometry relative="1" as="geometry"/>
                </mxCell>
                <mxCell id="201" value="mostrar productos" style="rounded=0;whiteSpace=wrap;html=1;" vertex="1" parent="1">
                    <mxGeometry x="1060" y="2990" width="120" height="60" as="geometry"/>
                </mxCell>
                <mxCell id="207" value="" style="edgeStyle=none;html=1;" edge="1" parent="1" source="203" target="206">
                    <mxGeometry relative="1" as="geometry"/>
                </mxCell>
                <mxCell id="203" value="Ingresar codigo&lt;br&gt;y cantidad" style="shape=parallelogram;perimeter=parallelogramPerimeter;whiteSpace=wrap;html=1;fixedSize=1;" vertex="1" parent="1">
                    <mxGeometry x="1250" y="2990" width="120" height="60" as="geometry"/>
                </mxCell>
                <mxCell id="209" value="" style="edgeStyle=none;html=1;startArrow=none;" edge="1" parent="1" source="226" target="208">
                    <mxGeometry relative="1" as="geometry"/>
                </mxCell>
                <mxCell id="213" value="" style="edgeStyle=none;html=1;" edge="1" parent="1" source="206" target="212">
                    <mxGeometry relative="1" as="geometry"/>
                </mxCell>
                <mxCell id="206" value="si codigo = codigo y cant &amp;lt; cant prod" style="rhombus;whiteSpace=wrap;html=1;" vertex="1" parent="1">
                    <mxGeometry x="1451" y="2970" width="130" height="100" as="geometry"/>
                </mxCell>
                <mxCell id="211" value="" style="edgeStyle=none;html=1;" edge="1" parent="1" source="208" target="210">
                    <mxGeometry relative="1" as="geometry"/>
                </mxCell>
                <mxCell id="208" value="quiere agregar producto +cantidad al carro ? s/n" style="shape=parallelogram;perimeter=parallelogramPerimeter;whiteSpace=wrap;html=1;fixedSize=1;" vertex="1" parent="1">
                    <mxGeometry x="1456" y="3330" width="120" height="60" as="geometry"/>
                </mxCell>
                <mxCell id="228" style="edgeStyle=none;html=1;startArrow=none;exitX=0.5;exitY=0;exitDx=0;exitDy=0;" edge="1" parent="1" source="235" target="201">
                    <mxGeometry relative="1" as="geometry">
                        <Array as="points">
                            <mxPoint x="910" y="3230"/>
                            <mxPoint x="1120" y="3230"/>
                        </Array>
                    </mxGeometry>
                </mxCell>
                <mxCell id="210" value="if opcion =s" style="rhombus;whiteSpace=wrap;html=1;" vertex="1" parent="1">
                    <mxGeometry x="1475" y="3420" width="80" height="80" as="geometry"/>
                </mxCell>
                <mxCell id="215" value="" style="edgeStyle=none;html=1;" edge="1" parent="1" source="212" target="214">
                    <mxGeometry relative="1" as="geometry"/>
                </mxCell>
                <mxCell id="212" value="print producto= existe/no&lt;br&gt;print cant= x" style="whiteSpace=wrap;html=1;" vertex="1" parent="1">
                    <mxGeometry x="1660" y="2990" width="120" height="60" as="geometry"/>
                </mxCell>
                <mxCell id="218" value="" style="edgeStyle=none;html=1;" edge="1" parent="1" source="214" target="217">
                    <mxGeometry relative="1" as="geometry"/>
                </mxCell>
                <mxCell id="214" value="cargar otro prod? s o&amp;nbsp; volver al menu" style="shape=parallelogram;perimeter=parallelogramPerimeter;whiteSpace=wrap;html=1;fixedSize=1;" vertex="1" parent="1">
                    <mxGeometry x="1860" y="2985" width="140" height="70" as="geometry"/>
                </mxCell>
                <mxCell id="219" style="edgeStyle=none;html=1;entryX=0.442;entryY=-0.033;entryDx=0;entryDy=0;entryPerimeter=0;" edge="1" parent="1" source="217" target="201">
                    <mxGeometry relative="1" as="geometry">
                        <Array as="points">
                            <mxPoint x="1110" y="2910"/>
                        </Array>
                    </mxGeometry>
                </mxCell>
                <mxCell id="224" style="edgeStyle=none;html=1;" edge="1" parent="1" source="217">
                    <mxGeometry relative="1" as="geometry">
                        <mxPoint x="1930" y="2578" as="targetPoint"/>
                    </mxGeometry>
                </mxCell>
                <mxCell id="217" value="if opcion =s" style="rhombus;whiteSpace=wrap;html=1;" vertex="1" parent="1">
                    <mxGeometry x="1890" y="2870" width="80" height="80" as="geometry"/>
                </mxCell>
                <mxCell id="220" value="si" style="text;html=1;align=center;verticalAlign=middle;resizable=0;points=[];autosize=1;strokeColor=none;fillColor=none;" vertex="1" parent="1">
                    <mxGeometry x="1805" y="2875" width="30" height="30" as="geometry"/>
                </mxCell>
                <mxCell id="225" value="no" style="text;html=1;align=center;verticalAlign=middle;resizable=0;points=[];autosize=1;strokeColor=none;fillColor=none;" vertex="1" parent="1">
                    <mxGeometry x="1935" y="2820" width="40" height="30" as="geometry"/>
                </mxCell>
                <mxCell id="227" value="" style="edgeStyle=none;html=1;endArrow=none;" edge="1" parent="1" source="206" target="226">
                    <mxGeometry relative="1" as="geometry">
                        <mxPoint x="1516" y="3070" as="sourcePoint"/>
                        <mxPoint x="1516" y="3330" as="targetPoint"/>
                    </mxGeometry>
                </mxCell>
                <mxCell id="226" value="mostrar carro y precio precio unitario y de compra" style="rounded=0;whiteSpace=wrap;html=1;" vertex="1" parent="1">
                    <mxGeometry x="1456" y="3160" width="120" height="60" as="geometry"/>
                </mxCell>
                <mxCell id="231" value="si" style="text;html=1;align=center;verticalAlign=middle;resizable=0;points=[];autosize=1;strokeColor=none;fillColor=none;" vertex="1" parent="1">
                    <mxGeometry x="1226" y="3420" width="30" height="30" as="geometry"/>
                </mxCell>
                <mxCell id="245" value="" style="edgeStyle=none;html=1;" edge="1" parent="1" source="235">
                    <mxGeometry relative="1" as="geometry">
                        <mxPoint x="910" y="3480" as="targetPoint"/>
                    </mxGeometry>
                </mxCell>
                <mxCell id="235" value="opcion=s" style="rhombus;whiteSpace=wrap;html=1;" vertex="1" parent="1">
                    <mxGeometry x="870" y="3270" width="80" height="80" as="geometry"/>
                </mxCell>
                <mxCell id="247" value="" style="edgeStyle=none;html=1;" edge="1" parent="1" target="246">
                    <mxGeometry relative="1" as="geometry">
                        <mxPoint x="910" y="3540" as="sourcePoint"/>
                    </mxGeometry>
                </mxCell>
                <mxCell id="243" value="" style="edgeStyle=none;html=1;endArrow=none;" edge="1" parent="1" source="210" target="242">
                    <mxGeometry relative="1" as="geometry">
                        <mxPoint x="1475" y="3460" as="sourcePoint"/>
                        <mxPoint x="1120" y="3050" as="targetPoint"/>
                        <Array as="points">
                            <mxPoint x="1290" y="3460"/>
                            <mxPoint x="1120" y="3460"/>
                        </Array>
                    </mxGeometry>
                </mxCell>
                <mxCell id="244" value="" style="edgeStyle=none;html=1;" edge="1" parent="1" source="242" target="235">
                    <mxGeometry relative="1" as="geometry"/>
                </mxCell>
                <mxCell id="242" value="Deseea eliminar algun producto s / n" style="shape=parallelogram;perimeter=parallelogramPerimeter;whiteSpace=wrap;html=1;fixedSize=1;" vertex="1" parent="1">
                    <mxGeometry x="1060" y="3280" width="120" height="60" as="geometry"/>
                </mxCell>
                <mxCell id="249" value="" style="edgeStyle=none;html=1;" edge="1" parent="1" source="246" target="248">
                    <mxGeometry relative="1" as="geometry"/>
                </mxCell>
                <mxCell id="246" value="producto eliminado&lt;br&gt;mostrar carro" style="whiteSpace=wrap;html=1;" vertex="1" parent="1">
                    <mxGeometry x="850" y="3610" width="120" height="60" as="geometry"/>
                </mxCell>
                <mxCell id="251" value="" style="edgeStyle=none;html=1;" edge="1" parent="1" source="248" target="250">
                    <mxGeometry relative="1" as="geometry"/>
                </mxCell>
                <mxCell id="248" value="quiere agregar producto +cantidad al carro ? s/n" style="shape=parallelogram;perimeter=parallelogramPerimeter;whiteSpace=wrap;html=1;fixedSize=1;" vertex="1" parent="1">
                    <mxGeometry x="850" y="3700" width="120" height="60" as="geometry"/>
                </mxCell>
                <mxCell id="252" style="edgeStyle=none;html=1;entryX=0.5;entryY=1;entryDx=0;entryDy=0;" edge="1" parent="1" source="250" target="199">
                    <mxGeometry relative="1" as="geometry">
                        <Array as="points">
                            <mxPoint x="650" y="3870"/>
                            <mxPoint x="650" y="3150"/>
                            <mxPoint x="920" y="3150"/>
                        </Array>
                    </mxGeometry>
                </mxCell>
                <mxCell id="254" value="" style="edgeStyle=none;html=1;" edge="1" parent="1" source="250">
                    <mxGeometry relative="1" as="geometry">
                        <mxPoint x="1010" y="3870" as="targetPoint"/>
                    </mxGeometry>
                </mxCell>
                <mxCell id="250" value="if opcion =s" style="rhombus;whiteSpace=wrap;html=1;" vertex="1" parent="1">
                    <mxGeometry x="870" y="3830" width="80" height="80" as="geometry"/>
                </mxCell>
                <mxCell id="257" value="" style="edgeStyle=none;html=1;" edge="1" parent="1" source="255" target="256">
                    <mxGeometry relative="1" as="geometry"/>
                </mxCell>
                <mxCell id="255" value="Quiere finalizar la compra s/n" style="shape=parallelogram;perimeter=parallelogramPerimeter;whiteSpace=wrap;html=1;fixedSize=1;" vertex="1" parent="1">
                    <mxGeometry x="1000" y="3840" width="120" height="60" as="geometry"/>
                </mxCell>
                <mxCell id="259" value="" style="edgeStyle=none;html=1;" edge="1" parent="1" source="256" target="258">
                    <mxGeometry relative="1" as="geometry"/>
                </mxCell>
                <mxCell id="264" style="edgeStyle=none;html=1;" edge="1" parent="1" source="256">
                    <mxGeometry relative="1" as="geometry">
                        <mxPoint x="650" y="3870" as="targetPoint"/>
                        <Array as="points">
                            <mxPoint x="650" y="4010"/>
                        </Array>
                    </mxGeometry>
                </mxCell>
                <mxCell id="256" value="if opcion =s" style="rhombus;whiteSpace=wrap;html=1;" vertex="1" parent="1">
                    <mxGeometry x="1020" y="3970" width="80" height="80" as="geometry"/>
                </mxCell>
                <mxCell id="266" value="" style="edgeStyle=none;html=1;" edge="1" parent="1" source="258" target="265">
                    <mxGeometry relative="1" as="geometry"/>
                </mxCell>
                <mxCell id="258" value="sus carro tiene los sisguientes productos y precios unitarios , totales" style="whiteSpace=wrap;html=1;" vertex="1" parent="1">
                    <mxGeometry x="1160" y="3980" width="120" height="60" as="geometry"/>
                </mxCell>
                <mxCell id="260" value="si" style="text;html=1;align=center;verticalAlign=middle;resizable=0;points=[];autosize=1;strokeColor=none;fillColor=none;" vertex="1" parent="1">
                    <mxGeometry x="785" y="3825" width="30" height="30" as="geometry"/>
                </mxCell>
                <mxCell id="261" value="no" style="text;html=1;align=center;verticalAlign=middle;resizable=0;points=[];autosize=1;strokeColor=none;fillColor=none;" vertex="1" parent="1">
                    <mxGeometry x="950" y="3825" width="40" height="30" as="geometry"/>
                </mxCell>
                <mxCell id="262" value="si" style="text;html=1;align=center;verticalAlign=middle;resizable=0;points=[];autosize=1;strokeColor=none;fillColor=none;" vertex="1" parent="1">
                    <mxGeometry x="1115" y="3965" width="30" height="30" as="geometry"/>
                </mxCell>
                <mxCell id="263" value="no" style="text;html=1;align=center;verticalAlign=middle;resizable=0;points=[];autosize=1;strokeColor=none;fillColor=none;" vertex="1" parent="1">
                    <mxGeometry x="970" y="3975" width="40" height="30" as="geometry"/>
                </mxCell>
                <mxCell id="267" style="edgeStyle=none;html=1;entryX=1.008;entryY=0.367;entryDx=0;entryDy=0;entryPerimeter=0;" edge="1" parent="1" source="265" target="30">
                    <mxGeometry relative="1" as="geometry">
                        <mxPoint x="1411" y="4280" as="targetPoint"/>
                        <Array as="points">
                            <mxPoint x="2350" y="4010"/>
                            <mxPoint x="2350" y="3630"/>
                            <mxPoint x="2350" y="3070"/>
                            <mxPoint x="2340" y="2060"/>
                            <mxPoint x="2320" y="490"/>
                            <mxPoint x="2320" y="380"/>
                            <mxPoint x="950" y="380"/>
                            <mxPoint x="750" y="380"/>
                        </Array>
                    </mxGeometry>
                </mxCell>
                <mxCell id="265" value="press enter para volver al menu" style="shape=parallelogram;perimeter=parallelogramPerimeter;whiteSpace=wrap;html=1;fixedSize=1;" vertex="1" parent="1">
                    <mxGeometry x="1351" y="3980" width="120" height="60" as="geometry"/>
                </mxCell>
                <mxCell id="271" style="edgeStyle=none;html=1;" edge="1" parent="1" source="269" target="272">
                    <mxGeometry relative="1" as="geometry">
                        <mxPoint x="1030" y="4360" as="targetPoint"/>
                    </mxGeometry>
                </mxCell>
                <mxCell id="288" value="" style="edgeStyle=none;html=1;" edge="1" parent="1" target="287">
                    <mxGeometry relative="1" as="geometry">
                        <mxPoint x="480" y="4358.260869565217" as="sourcePoint"/>
                        <Array as="points">
                            <mxPoint x="480" y="5170"/>
                        </Array>
                    </mxGeometry>
                </mxCell>
                <mxCell id="269" value="If opcion==5" style="rhombus;whiteSpace=wrap;html=1;" vertex="1" parent="1">
                    <mxGeometry x="730" y="4320" width="80" height="80" as="geometry"/>
                </mxCell>
                <mxCell id="274" value="" style="edgeStyle=none;html=1;" edge="1" parent="1" source="272" target="273">
                    <mxGeometry relative="1" as="geometry"/>
                </mxCell>
                <mxCell id="272" value="&lt;br&gt;&lt;div style=&quot;border-color: rgb(0, 0, 0); color: rgb(240, 240, 240); font-family: Helvetica; font-size: 12px; font-style: normal; font-variant-ligatures: normal; font-variant-caps: normal; font-weight: 400; letter-spacing: normal; orphans: 2; text-align: center; text-indent: 0px; text-transform: none; widows: 2; word-spacing: 0px; -webkit-text-stroke-width: 0px; background-color: rgb(42, 37, 47); text-decoration-thickness: initial; text-decoration-style: initial; text-decoration-color: initial;&quot;&gt;Detalle de los productos comprados, incluyendo&amp;nbsp;&lt;/div&gt;&lt;div style=&quot;border-color: rgb(0, 0, 0); color: rgb(240, 240, 240); font-family: Helvetica; font-size: 12px; font-style: normal; font-variant-ligatures: normal; font-variant-caps: normal; font-weight: 400; letter-spacing: normal; orphans: 2; text-align: center; text-indent: 0px; text-transform: none; widows: 2; word-spacing: 0px; -webkit-text-stroke-width: 0px; background-color: rgb(42, 37, 47); text-decoration-thickness: initial; text-decoration-style: initial; text-decoration-color: initial;&quot;&gt;el nombre, la cantidad, el precio unitario y el costo total.&lt;/div&gt;&lt;br&gt;" style="rounded=0;whiteSpace=wrap;html=1;" vertex="1" parent="1">
                    <mxGeometry x="930" y="4320" width="300" height="80" as="geometry"/>
                </mxCell>
                <mxCell id="276" value="" style="edgeStyle=none;html=1;" edge="1" parent="1" source="273" target="275">
                    <mxGeometry relative="1" as="geometry"/>
                </mxCell>
                <mxCell id="273" value="Quiere agregar mas productos?s/n" style="shape=parallelogram;perimeter=parallelogramPerimeter;whiteSpace=wrap;html=1;fixedSize=1;rounded=0;" vertex="1" parent="1">
                    <mxGeometry x="1020" y="4490" width="120" height="60" as="geometry"/>
                </mxCell>
                <mxCell id="277" style="edgeStyle=none;html=1;entryX=1;entryY=0;entryDx=0;entryDy=0;" edge="1" parent="1" source="275" target="30">
                    <mxGeometry relative="1" as="geometry">
                        <mxPoint x="408" y="4660" as="targetPoint"/>
                        <Array as="points">
                            <mxPoint x="2390" y="4660"/>
                            <mxPoint x="2380" y="360"/>
                        </Array>
                    </mxGeometry>
                </mxCell>
                <mxCell id="281" value="" style="edgeStyle=none;html=1;" edge="1" parent="1" source="275" target="280">
                    <mxGeometry relative="1" as="geometry"/>
                </mxCell>
                <mxCell id="275" value="if&amp;nbsp; opcion =s" style="rhombus;whiteSpace=wrap;html=1;rounded=0;" vertex="1" parent="1">
                    <mxGeometry x="1040" y="4620" width="80" height="80" as="geometry"/>
                </mxCell>
                <mxCell id="279" value="si" style="text;html=1;align=center;verticalAlign=middle;resizable=0;points=[];autosize=1;strokeColor=none;fillColor=none;" vertex="1" parent="1">
                    <mxGeometry x="1160" y="4620" width="30" height="30" as="geometry"/>
                </mxCell>
                <mxCell id="283" value="" style="edgeStyle=none;html=1;" edge="1" parent="1" source="280">
                    <mxGeometry relative="1" as="geometry">
                        <mxPoint x="1080" y="4930" as="targetPoint"/>
                    </mxGeometry>
                </mxCell>
                <mxCell id="280" value="genera ticket con valores de todos los productos nombre negocio etc" style="whiteSpace=wrap;html=1;rounded=0;" vertex="1" parent="1">
                    <mxGeometry x="1020" y="4730" width="120" height="60" as="geometry"/>
                </mxCell>
                <mxCell id="284" value="Gracias por su compra" style="whiteSpace=wrap;html=1;rounded=0;" vertex="1" parent="1">
                    <mxGeometry x="1020" y="4830" width="120" height="60" as="geometry"/>
                </mxCell>
                <mxCell id="286" value="si" style="text;html=1;align=center;verticalAlign=middle;resizable=0;points=[];autosize=1;strokeColor=none;fillColor=none;" vertex="1" parent="1">
                    <mxGeometry x="845" y="4315" width="30" height="30" as="geometry"/>
                </mxCell>
                <mxCell id="290" value="" style="edgeStyle=none;html=1;" edge="1" parent="1" source="287" target="289">
                    <mxGeometry relative="1" as="geometry"/>
                </mxCell>
                <mxCell id="287" value="If opcion==6" style="rhombus;whiteSpace=wrap;html=1;" vertex="1" parent="1">
                    <mxGeometry x="730" y="5130" width="80" height="80" as="geometry"/>
                </mxCell>
                <mxCell id="293" style="edgeStyle=none;html=1;entryX=1;entryY=0.5;entryDx=0;entryDy=0;" edge="1" parent="1" source="289" target="292">
                    <mxGeometry relative="1" as="geometry">
                        <Array as="points">
                            <mxPoint x="1340" y="5170"/>
                            <mxPoint x="1340" y="4970"/>
                        </Array>
                    </mxGeometry>
                </mxCell>
                <mxCell id="289" value="Gracias por su visita" style="whiteSpace=wrap;html=1;" vertex="1" parent="1">
                    <mxGeometry x="1090" y="5140" width="120" height="60" as="geometry"/>
                </mxCell>
                <mxCell id="291" value="Salir" style="html=1;" vertex="1" parent="1">
                    <mxGeometry x="880" y="5150" width="110" height="50" as="geometry"/>
                </mxCell>
                <mxCell id="292" value="fin" style="ellipse;whiteSpace=wrap;html=1;" vertex="1" parent="1">
                    <mxGeometry x="1020" y="4930" width="120" height="80" as="geometry"/>
                </mxCell>
                <mxCell id="294" value="SI" style="text;html=1;align=center;verticalAlign=middle;resizable=0;points=[];autosize=1;strokeColor=none;fillColor=none;" vertex="1" parent="1">
                    <mxGeometry x="785" y="2975" width="30" height="30" as="geometry"/>
                </mxCell>
                <mxCell id="298" value="no" style="text;html=1;align=center;verticalAlign=middle;resizable=0;points=[];autosize=1;strokeColor=none;fillColor=none;" vertex="1" parent="1">
                    <mxGeometry x="1580" y="2985" width="40" height="30" as="geometry"/>
                </mxCell>
                <mxCell id="299" value="si" style="text;html=1;align=center;verticalAlign=middle;resizable=0;points=[];autosize=1;strokeColor=none;fillColor=none;" vertex="1" parent="1">
                    <mxGeometry x="1465" y="3105" width="30" height="30" as="geometry"/>
                </mxCell>
                <mxCell id="300" value="si" style="text;html=1;align=center;verticalAlign=middle;resizable=0;points=[];autosize=1;strokeColor=none;fillColor=none;" vertex="1" parent="1">
                    <mxGeometry x="865" y="3345" width="30" height="30" as="geometry"/>
                </mxCell>
                <mxCell id="308" value="Ingrese codigo y cantidad" style="shape=parallelogram;perimeter=parallelogramPerimeter;whiteSpace=wrap;html=1;fixedSize=1;" vertex="1" parent="1">
                    <mxGeometry x="850" y="3370" width="120" height="60" as="geometry"/>
                </mxCell>
                <mxCell id="310" value="no" style="text;html=1;align=center;verticalAlign=middle;resizable=0;points=[];autosize=1;strokeColor=none;fillColor=none;" vertex="1" parent="1">
                    <mxGeometry x="940" y="3205" width="40" height="30" as="geometry"/>
                </mxCell>
                <mxCell id="313" value="" style="edgeStyle=none;html=1;" edge="1" parent="1" source="311" target="312">
                    <mxGeometry relative="1" as="geometry"/>
                </mxCell>
                <mxCell id="311" value="El producto es = producto desea eliminartlo? s/n" style="shape=parallelogram;perimeter=parallelogramPerimeter;whiteSpace=wrap;html=1;fixedSize=1;" vertex="1" parent="1">
                    <mxGeometry x="850" y="3480" width="120" height="60" as="geometry"/>
                </mxCell>
                <mxCell id="314" style="edgeStyle=none;html=1;exitX=0.5;exitY=1;exitDx=0;exitDy=0;entryX=0;entryY=0.5;entryDx=0;entryDy=0;" edge="1" parent="1" source="312" target="246">
                    <mxGeometry relative="1" as="geometry">
                        <Array as="points">
                            <mxPoint x="745" y="3640"/>
                        </Array>
                    </mxGeometry>
                </mxCell>
                <mxCell id="315" style="edgeStyle=none;html=1;entryX=0.25;entryY=1;entryDx=0;entryDy=0;" edge="1" parent="1" source="312" target="201">
                    <mxGeometry relative="1" as="geometry">
                        <mxPoint x="910" y="3230" as="targetPoint"/>
                        <Array as="points">
                            <mxPoint x="750" y="3190"/>
                            <mxPoint x="1090" y="3190"/>
                        </Array>
                    </mxGeometry>
                </mxCell>
                <mxCell id="312" value="opcion=s" style="rhombus;whiteSpace=wrap;html=1;" vertex="1" parent="1">
                    <mxGeometry x="705" y="3470" width="80" height="80" as="geometry"/>
                </mxCell>
                <mxCell id="316" value="no" style="text;html=1;align=center;verticalAlign=middle;resizable=0;points=[];autosize=1;strokeColor=none;fillColor=none;" vertex="1" parent="1">
                    <mxGeometry x="710" y="3405" width="40" height="30" as="geometry"/>
                </mxCell>
                <mxCell id="317" value="si" style="text;html=1;align=center;verticalAlign=middle;resizable=0;points=[];autosize=1;strokeColor=none;fillColor=none;" vertex="1" parent="1">
                    <mxGeometry x="705" y="3575" width="30" height="30" as="geometry"/>
                </mxCell>
            </root>
        </mxGraphModel>
    </diagram>
</mxfile>